<svg xmlns="http://www.w3.org/2000/svg" viewBox="0 0 175 31">
  <path fill="#fff" d="M0 0h175v31H0z"/>
  <path d="M19.75 8.38h2.75l-5.09 13.89h-2.14L11.5 12 7.87 22.27H5.76L.55 8.38h2.76l3.48 9.88 3.48-9.88h2.49l3.51 9.88zM23 15.31a7.16 7.16 0 1114.31 0 7.16 7.16 0 11-14.31 0zm11.76 0a4.6 4.6 0 10-9.19 0 4.6 4.6 0 109.19 0zM48.25 8.56L47.84 11a4.62 4.62 0 00-2-.48c-2.72 0-3.81 3-3.81 6.66v5.09h-2.56V8.38H42v3.15c.71-2.44 2-3.51 3.84-3.51a5.07 5.07 0 012.41.54zM61.94 22.27h-3.42l-6.29-6.78v6.78h-2.55V.82h2.55v12.47L57 8.38h3.54l-5.86 6zM76.25 8.38v2.23h-3v11.66h-2.5V10.61h-2.46V8.38h2.46V3.14h2.54v5.24zM76.93 15.31a7.16 7.16 0 1114.31 0 7.16 7.16 0 11-14.31 0zm11.76 0a4.6 4.6 0 10-9.19 0 4.6 4.6 0 109.19 0zM104.63 8.38h2.55v12c0 6.57-2.93 9-7.43 9a6.93 6.93 0 01-6.15-3.72l2.17-1.16a4.57 4.57 0 004 2.44c3 0 4.88-1.72 4.88-6.42v-.42a5.63 5.63 0 01-4.86 2.53c-3.74 0-6.84-2.95-6.84-7.32S96 8 99.75 8a5.51 5.51 0 014.88 2.53zm0 6.9a4.71 4.71 0 00-4.63-4.82 4.56 4.56 0 00-4.48 4.82 4.58 4.58 0 109.13 0zM123.51 16.44h-11.13a4.2 4.2 0 004.48 3.75 4.46 4.46 0 004-2.17l2.2.89a6.81 6.81 0 01-6.27 3.72 7 7 0 01-7-7.35 6.9 6.9 0 017-7.26c3.9 0 6.79 2.86 6.79 7.26-.02.39-.05.77-.07 1.16zM121 14.21a4.35 4.35 0 00-8.61 0zM132.39 8.38v2.23h-3v11.66h-2.55V10.61h-2.45V8.38h2.45V3.14h2.55v5.24zM146.92 14.24v8h-2.54v-7.85c0-2.32-1.41-3.81-3.31-3.81a4 4 0 00-4.18 4.16v7.53h-2.55V.82h2.55v9.67c.82-1.7 3-2.47 4.53-2.47 3.4-.02 5.58 2.32 5.5 6.22zM163 16.44h-11.11a4.19 4.19 0 004.47 3.75 4.48 4.48 0 004-2.17l2.19.89a6.8 6.8 0 01-6.26 3.72 7 7 0 01-7-7.35 6.9 6.9 0 017-7.26c3.89 0 6.79 2.86 6.79 7.26-.01.39-.08.77-.08 1.16zm-2.49-2.23a4.06 4.06 0 00-4.24-3.75 4.1 4.1 0 00-4.36 3.75zM174.33 8.56l-.41 2.44a4.62 4.62 0 00-2-.48c-2.72 0-3.8 3-3.8 6.66v5.09h-2.58V8.38h2.58v3.15c.7-2.44 2-3.51 3.83-3.51a5 5 0 012.38.54z"/>
</svg>
