<svg xmlns="http://www.w3.org/2000/svg" viewBox="0 0 175 31">
  <path fill="#fff" d="M0 0h175v31H0z"/>
  <path d="M19.75 8.56h2.75l-5.09 13.89h-2.14L11.5 12.13 7.87 22.45H5.76L.55 8.56h2.76l3.48 9.87 3.48-9.87h2.49l3.51 9.87zM24.32 3.44a1.8 1.8 0 013.6 0 1.8 1.8 0 01-3.6 0zm.53 19V8.56h2.55v13.89zM43.79 14.42v8h-2.54v-7.85c0-2.32-1.41-3.81-3.31-3.81a4 4 0 00-4.18 4.16v7.53h-2.55V8.56h2.55v2.11c.81-1.7 3-2.47 4.53-2.47 3.4 0 5.53 2.32 5.5 6.22zM60.53 8.56v2.23h-3v11.66H55V10.79h-2.43V8.56H55V3.32h2.55v5.24zM61.2 15.49a7.16 7.16 0 1114.31 0 7.16 7.16 0 11-14.31 0zm11.77 0a4.6 4.6 0 10-9.19 0 4.6 4.6 0 109.19 0zM88.91 8.56h2.55v12c0 6.57-2.93 9-7.44 9a6.91 6.91 0 01-6.14-3.72l2.17-1.16a4.57 4.57 0 004 2.44c3 0 4.89-1.72 4.89-6.42v-.42a5.64 5.64 0 01-4.86 2.53c-3.74 0-6.84-2.95-6.84-7.32S80.28 8.2 84 8.2a5.52 5.52 0 014.89 2.53zm0 6.9a4.71 4.71 0 00-4.65-4.82 4.56 4.56 0 00-4.48 4.82 4.58 4.58 0 109.13 0zM107.78 16.62H96.66a4.2 4.2 0 004.48 3.75 4.46 4.46 0 004-2.17l2.2.89a6.81 6.81 0 01-6.27 3.72 7 7 0 01-7-7.35 6.9 6.9 0 017-7.26c3.9 0 6.79 2.86 6.79 7.26-.02.39-.05.77-.08 1.16zm-2.48-2.23a4.35 4.35 0 00-8.61 0zM116.67 8.56v2.23h-3v11.66h-2.55V10.79h-2.45V8.56h2.45V3.32h2.55v5.24zM131.2 14.42v8h-2.54v-7.85c0-2.32-1.41-3.81-3.31-3.81a4 4 0 00-4.18 4.16v7.53h-2.55V1h2.55v9.67c.81-1.7 3-2.47 4.53-2.47 3.4 0 5.53 2.32 5.5 6.22zM147.29 16.62h-11.12a4.19 4.19 0 004.47 3.75 4.46 4.46 0 004-2.17l2.2.89a6.8 6.8 0 01-6.26 3.72 7 7 0 01-7-7.35 6.9 6.9 0 017-7.26c3.89 0 6.79 2.86 6.79 7.26-.02.39-.05.77-.08 1.16zm-2.49-2.23a4.34 4.34 0 00-8.6 0zM158.61 8.73l-.41 2.44a4.74 4.74 0 00-2-.47c-2.72 0-3.8 3-3.8 6.66v5.09h-2.58V8.56h2.58v3.15c.7-2.44 2-3.51 3.83-3.51a5.18 5.18 0 012.38.53z"/>
</svg>
