<svg xmlns="http://www.w3.org/2000/svg" viewBox="0 0 175 31">
  <defs>
    <style>
      .c{fill-rule:evenodd}
    </style>
    <mask id="a" x="49.7" y="0.82" width="12.27" height="21.49" maskUnits="userSpaceOnUse">
      <path fill-rule="evenodd" fill="#fff" d="M49.7.82h12.27v21.49H49.7V.82z"/>
    </mask>
  </defs>
  <path fill="#fff" d="M0 0h175v31H0z"/>
  <path class="c" d="M22.51 8.41l-5.09 13.9h-2.14L11.5 11.98 7.87 22.31H5.76L.55 8.41h2.76l3.48 9.88 3.48-9.88h2.49l3.51 9.88 3.49-9.88h2.75zM34.72 15.32a4.6 4.6 0 10-9.2 0 4.61 4.61 0 109.2 0m-11.72 0a7 7 0 017.14-7.21 7 7 0 017.17 7.21 7.16 7.16 0 11-14.31 0M48.21 8.65l-.41 2.44a4.62 4.62 0 00-2-.48c-2.72 0-3.81 3-3.81 6.61v5.09h-2.56V8.41H42v3.16c.71-2.44 2-3.46 3.84-3.46a5.07 5.07 0 012.37.54"/>
  <g mask="url(#a)">
    <path class="c" d="M58.54 22.31l-6.29-6.78v6.78H49.7V.82h2.55v12.5l4.74-4.91h3.54l-5.85 6.01 7.29 7.89h-3.43z"/>
  </g>
  <path class="c" d="M87.32 8.41l-5.1 13.9h-2.13l-3.78-10.33-3.63 10.33h-2.11l-5.21-13.9h2.75l3.49 9.88 3.48-9.88h2.49l3.51 9.88 3.49-9.88h2.75zM88.93 22.31h2.54V8.41h-2.54zm-.53-19a1.8 1.8 0 013.6 0 1.8 1.8 0 01-3.6 0zM101.4 10.64h-2.96v11.67h-2.55V10.64h-2.46V8.41h2.46V3.14h2.55v5.27h2.96v2.23zM115.77 14.28v8h-2.55v-7.86c0-2.32-1.4-3.75-3.3-3.75a3.93 3.93 0 00-4.19 4.11v7.53h-2.55V.82h2.55v9.7c.82-1.69 3-2.41 4.54-2.41 3.39 0 5.53 2.27 5.5 6.17M122.47 18.18h2.37c0 1.19 1.06 2.17 2.73 2.17s2.75-.81 2.75-1.94-.79-1.57-1.88-1.81l-1.87-.45c-2.28-.62-3.6-1.76-3.6-4s1.93-4.05 4.68-4.05c2.32 0 4.72 1.25 4.72 4.05h-2.46a2.06 2.06 0 00-2.2-1.78 2 2 0 00-2.19 1.87c0 .95.88 1.46 1.75 1.67l2 .5c2.84.72 3.57 2.45 3.57 4 0 2.59-2.45 4.17-5.29 4.17-2.46 0-5-1.58-5.1-4.43M134.68 22.31h2.55V8.41h-2.55zm-.53-19a1.8 1.8 0 013.6 0 1.8 1.8 0 01-3.6 0zM150.81 15.32a4.67 4.67 0 00-4.66-4.77 4.53 4.53 0 00-4.48 4.77 4.58 4.58 0 109.14 0zm2.55-6.91v13.9h-2.55v-2.2a5.56 5.56 0 01-4.86 2.5c-3.75 0-6.85-2.89-6.85-7.26s3.07-7.24 6.82-7.24a5.44 5.44 0 014.89 2.47V8.41zM168.75 14.28v8h-2.54v-7.86c0-2.32-1.41-3.75-3.31-3.75a3.93 3.93 0 00-4.19 4.11v7.53h-2.55V8.41h2.55v2.11c.82-1.69 3-2.41 4.54-2.41 3.39 0 5.53 2.27 5.5 6.17"/>
</svg>
