<svg xmlns="http://www.w3.org/2000/svg" viewBox="0 0 175 31">
  <defs/>
  <path d="M19.75 8.4h2.75l-5.09 13.9h-2.14L11.5 12 7.87 22.3H5.76L.55 8.4h2.76l3.48 9.88 3.48-9.88h2.49l3.51 9.88zM23 15.33a7.16 7.16 0 1114.31 0 7.16 7.16 0 11-14.31 0zm11.76 0a4.6 4.6 0 10-9.19 0 4.6 4.6 0 109.19 0zM48.25 8.58L47.84 11a4.62 4.62 0 00-2-.48c-2.72 0-3.81 3-3.81 6.67v5.11h-2.56V8.4H42v3.15c.71-2.44 2-3.51 3.84-3.51a5.07 5.07 0 012.41.54zM61.94 22.3h-3.42l-6.29-6.79v6.79h-2.55V.84h2.55v12.47L57 8.4h3.54l-5.86 6zM84.47 8.4h2.75l-5.09 13.9H80L76.22 12l-3.63 10.3h-2.11L65.27 8.4H68l3.49 9.88L75 8.4h2.49L81 18.28zM88.4 3.28a1.8 1.8 0 013.6 0 1.8 1.8 0 01-3.6 0zm.53 19V8.4h2.54v13.9zM101.4 8.4v2.23h-3V22.3h-2.51V10.63h-2.45V8.4h2.45V3.16h2.55V8.4zM115.77 14.26v8h-2.55v-7.85c0-2.32-1.4-3.81-3.31-3.81a4 4 0 00-4.18 4.16v7.53h-2.55V.84h2.55v9.67c.82-1.7 3-2.47 4.54-2.47 3.39-.04 5.53 2.32 5.5 6.22zM122.47 18.22h2.37c0 1.19 1.06 2.17 2.73 2.17s2.75-.86 2.75-2-.79-1.58-1.88-1.82l-1.87-.44c-2.28-.63-3.6-1.76-3.6-4S124.9 8 127.65 8c2.32 0 4.72 1.25 4.72 4.05h-2.46a2.07 2.07 0 00-2.2-1.79 2 2 0 00-2.19 1.94c0 .95.88 1.46 1.75 1.67l2 .5c2.84.71 3.57 2.44 3.57 4 0 2.59-2.46 4.22-5.29 4.22-2.44.06-4.96-1.51-5.08-4.37zM134.15 3.3a1.8 1.8 0 013.6 0 1.8 1.8 0 01-3.6 0zm.53 19V8.42h2.55v13.89zM150.82 8.4h2.55v13.9h-2.55v-2.47a5.68 5.68 0 01-5 2.82c-3.57 0-6.7-3.06-6.7-7.32 0-4.1 2.95-7.29 6.81-7.29a5.49 5.49 0 014.89 2.53zm0 6.93a4.83 4.83 0 00-4.65-4.85 4.7 4.7 0 00-4.48 4.85 4.58 4.58 0 109.13 0zM168.75 14.26v8h-2.55v-7.85c0-2.32-1.4-3.81-3.3-3.81a4 4 0 00-4.19 4.17v7.53h-2.54V8.4h2.54v2.11c.82-1.69 3-2.47 4.54-2.47 3.39-.04 5.53 2.32 5.5 6.22z"/>
</svg>
